<?xml version="1.0" encoding="utf-8"?>
<!-- Generator: Adobe Illustrator 25.0.0, SVG Export Plug-In . SVG Version: 6.00 Build 0)  -->
<svg version="1.1" id="svg2" xmlns="http://www.w3.org/2000/svg" xmlns:xlink="http://www.w3.org/1999/xlink" x="0px" y="0px"
	 viewBox="0 0 802.9 130.4" style="enable-background:new 0 0 802.9 130.4;" xml:space="preserve">
<g id="layer1" transform="translate(-66.249341 -149.49884)">
	<g id="g2476" transform="matrix(7.1473 0 0 7.1473 66.249341 255.01681)">
		<g id="g2520">
			<g id="g2522">
				<g id="g2198" transform="matrix(1.57547 0 0 1.57547 0 -14.732135)">
					<path id="path2500" d="M25.9,2.7V0.4H15v10.8h10.9V8.7h-8V6.8h8V4.6h-8V2.7L25.9,2.7z"/>
					<path id="path2506" d="M56.3,11.2V0.4h-12v10.8H56.3z M53.4,3v5.7h-6.3V3L53.4,3z"/>
					<path id="path2512" d="M37.1,5.8L42,0.4h-3.7l-3.2,3.7l-3.2-3.7h-3.7l5,5.4l-5,5.4h3.7l3.2-3.7l3.2,3.7H42L37.1,5.8z"/>
					<path id="path2518" d="M11.8,0.4H8.9v5.9L0,0.1v11.1h2.8V5.3l9,6.2V0.4z"/>
					<path id="path2524" d="M59.5,11.2h2.8v-6l9,6.3V0.4h-2.8v5.9l-9-6.2V11.2z"/>
				</g>
			</g>
		</g>
	</g>
</g>
</svg>
